<svg xmlns="http://www.w3.org/2000/svg" width="40.038" height="40.029" viewBox="0 0 40.038 40.029"><defs><style>.a{fill:#fefefe;}</style></defs><path class="a" d="M20.018,11.989A10.263,10.263,0,1,0,30.281,22.252,10.247,10.247,0,0,0,20.018,11.989Zm0,16.935a6.672,6.672,0,1,1,6.672-6.672,6.684,6.684,0,0,1-6.672,6.672ZM33.094,11.569A2.394,2.394,0,1,1,30.7,9.176,2.388,2.388,0,0,1,33.094,11.569ZM39.892,14c-.152-3.207-.884-6.047-3.233-8.387s-5.181-3.073-8.387-3.233c-3.3-.188-13.21-.188-16.515,0-3.2.152-6.038.884-8.387,3.224S.3,10.783.135,13.99c-.188,3.3-.188,13.21,0,16.515.152,3.207.884,6.047,3.233,8.387s5.181,3.073,8.387,3.233c3.3.188,13.21.188,16.515,0,3.207-.152,6.047-.884,8.387-3.233s3.073-5.181,3.233-8.387c.188-3.3.188-13.2,0-16.506ZM35.622,34.051a6.755,6.755,0,0,1-3.805,3.805c-2.635,1.045-8.887.8-11.8.8s-9.173.232-11.8-.8a6.755,6.755,0,0,1-3.805-3.805c-1.045-2.635-.8-8.887-.8-11.8s-.232-9.173.8-11.8A6.755,6.755,0,0,1,8.219,6.648c2.635-1.045,8.887-.8,11.8-.8s9.173-.232,11.8.8a6.755,6.755,0,0,1,3.805,3.805c1.045,2.635.8,8.887.8,11.8S36.667,31.425,35.622,34.051Z" transform="translate(0.005 -2.238)"/></svg>